<svg xmlns="http://www.w3.org/2000/svg" width="50" height="50" viewBox="0 0 50 50" fill="#f68236">
    <path d="M 15.15625 0 C 13.767567 0.037381985 12.42627 0.43142977 11.3125 0.84375 C 9.8274727 1.3935103 8.71875 2.03125 8.71875 2.03125 A 1.0001 1.0001 0 0 0 8.53125 2.125 A 1.0001 1.0001 0 0 0 8.0625 2.65625 L 0.0625 25.65625 C -0.020984375 25.885141 -0.0305 26.144 0.0625 26.375 C 1.4115 29.741 5.009 32 9 32 C 12.991 32 16.5885 29.741 17.9375 26.375 C 18.0305 26.144 18.020984 25.885281 17.9375 25.65625 L 10.21875 3.5 C 10.616549 3.2980956 11.176552 3.0235923 12 2.71875 C 13.322223 2.2292603 15.001875 1.8534054 16.21875 2.0625 C 17.996719 2.3681833 19.72165 4.1698963 22 5.5 L 22 43 L 28 43 L 28 6.46875 C 30.531715 5.9669476 32.726195 4.8886719 34.46875 5.1875 C 35.686765 5.3970509 37.136354 6.3156741 38.21875 7.21875 C 39.268376 8.0944851 39.927995 8.8884738 39.96875 8.9375 L 32.0625 31.65625 C 31.979016 31.885141 31.9695 32.144 32.0625 32.375 C 33.4115 35.741 37.009 38 41 38 C 44.991 38 48.5885 35.741 49.9375 32.375 C 50.0305 32.144 50.020984 31.885281 49.9375 31.65625 L 41.9375 8.65625 A 1.0001 1.0001 0 0 0 41.78125 8.34375 A 1.0083877 1.0083877 0 0 0 41.53125 7.65625 C 41.53125 7.65625 40.715854 6.7019241 39.5 5.6875 C 38.284146 4.6730759 36.663485 3.5371991 34.8125 3.21875 C 34.093349 3.0954239 33.401113 3.1082145 32.71875 3.1875 C 31.036142 3.3830065 29.462379 4.0384725 28 4.40625 L 28 3 C 28 1.346 26.654 0 25 0 C 23.346 0 22 1.346 22 3 L 22 3.0625 C 20.424275 1.9211494 18.786283 0.4760813 16.5625 0.09375 C 16.099969 0.014273657 15.619144 -0.012460662 15.15625 0 z M 9 6.03125 L 15.59375 25 L 2.40625 25 L 9 6.03125 z M 41 12.03125 L 47.59375 31 L 34.40625 31 L 41 12.03125 z M 15.5 45 C 13.573 45 12 46.563 12 48.5 L 12 50 L 38 50 L 38 48.5 C 38 46.563 36.427 45 34.5 45 L 15.5 45 z"></path>
</svg>