<svg xmlns="http://www.w3.org/2000/svg" width="20" height="20" viewBox="0 0 50 50">
    <path d="M 25 1 C 19.486 1 15 5.486 15 11 L 15 13 L 7.09375 13 L 2.875 50 L 47.125 50 L 42.90625 13 L 37 13 L 37 19 C 37 20.657 35.657 22 34 22 C 33.778 22 33.55175 21.9825 33.34375 21.9375 C 32.00275 21.6385 31 20.432 31 19 C 31 17.698565 31.84162 16.602977 33 16.1875 L 33 19 C 33 19.552 33.447 20 34 20 C 34.553 20 35 19.552 35 19 L 35 16.1875 L 35 13 L 35 11 C 35 5.486 30.514 1 25 1 z M 25 3 C 29.411 3 33 6.589 33 11 L 33 13 L 19 13 L 19 19 C 19 20.657 17.657 22 16 22 C 15.778 22 15.55175 21.9825 15.34375 21.9375 C 13.99975 21.6385 13 20.433 13 19 C 13 17.698565 13.84162 16.602977 15 16.1875 L 15 19 C 15 19.552 15.448 20 16 20 C 16.552 20 17 19.552 17 19 L 17 16.1875 L 17 13 L 17 11 C 17 6.589 20.589 3 25 3 z"></path>
</svg>